<svg xmlns="http://www.w3.org/2000/svg" viewBox="0 0 1090.00 345.24">
  <style>
    .key-bg { fill: #f5f5f5; stroke: #d4d4d4; stroke-width: 1; }
    .key-index { fill: #171717; font-family: ui-monospace, SFMono-Regular, "SF Mono", Menlo, Consolas, "Liberation Mono", monospace; font-weight: 700; text-anchor: middle; dominant-baseline: central; }
    .key-part { font-family: system-ui, -apple-system, BlinkMacSystemFont, "Segoe UI", Roboto, sans-serif; text-anchor: middle; dominant-baseline: central; }
    @media (prefers-color-scheme: dark) {
      .key-bg { fill: #2a2a2a; stroke: #404040; }
      .key-index { fill: #e5e5e5; }
    }
    .key-bg.part-0 { stroke: #f59e0b; }
    .key-part.part-0 { fill: #f59e0b; }
    .key-bg.part-1 { stroke: #14b8a6; }
    .key-part.part-1 { fill: #14b8a6; }
  </style>
  <g>
    <path class="key-bg part-0" d="M 26.00,38.80 L 84.00,38.80 Q 88.00,38.80 88.00,42.80 L 88.00,100.80 Q 88.00,104.80 84.00,104.80 L 26.00,104.80 Q 22.00,104.80 22.00,100.80 L 22.00,42.80 Q 22.00,38.80 26.00,38.80 Z" />
    <path class="key-bg part-0" d="M 96.00,30.40 L 154.00,30.40 Q 158.00,30.40 158.00,34.40 L 158.00,92.40 Q 158.00,96.40 154.00,96.40 L 96.00,96.40 Q 92.00,96.40 92.00,92.40 L 92.00,34.40 Q 92.00,30.40 96.00,30.40 Z" />
    <path class="key-bg part-0" d="M 166.00,22.00 L 224.00,22.00 Q 228.00,22.00 228.00,26.00 L 228.00,84.00 Q 228.00,88.00 224.00,88.00 L 166.00,88.00 Q 162.00,88.00 162.00,84.00 L 162.00,26.00 Q 162.00,22.00 166.00,22.00 Z" />
    <path class="key-bg part-0" d="M 236.00,22.00 L 294.00,22.00 Q 298.00,22.00 298.00,26.00 L 298.00,84.00 Q 298.00,88.00 294.00,88.00 L 236.00,88.00 Q 232.00,88.00 232.00,84.00 L 232.00,26.00 Q 232.00,22.00 236.00,22.00 Z" />
    <path class="key-bg part-0" d="M 306.00,30.40 L 364.00,30.40 Q 368.00,30.40 368.00,34.40 L 368.00,92.40 Q 368.00,96.40 364.00,96.40 L 306.00,96.40 Q 302.00,96.40 302.00,92.40 L 302.00,34.40 Q 302.00,30.40 306.00,30.40 Z" />
    <path class="key-bg part-0" d="M 376.00,38.80 L 434.00,38.80 Q 438.00,38.80 438.00,42.80 L 438.00,100.80 Q 438.00,104.80 434.00,104.80 L 376.00,104.80 Q 372.00,104.80 372.00,100.80 L 372.00,42.80 Q 372.00,38.80 376.00,38.80 Z" />
    <path class="key-bg part-1" d="M 656.00,38.80 L 714.00,38.80 Q 718.00,38.80 718.00,42.80 L 718.00,100.80 Q 718.00,104.80 714.00,104.80 L 656.00,104.80 Q 652.00,104.80 652.00,100.80 L 652.00,42.80 Q 652.00,38.80 656.00,38.80 Z" />
    <path class="key-bg part-1" d="M 726.00,30.40 L 784.00,30.40 Q 788.00,30.40 788.00,34.40 L 788.00,92.40 Q 788.00,96.40 784.00,96.40 L 726.00,96.40 Q 722.00,96.40 722.00,92.40 L 722.00,34.40 Q 722.00,30.40 726.00,30.40 Z" />
    <path class="key-bg part-1" d="M 796.00,22.00 L 854.00,22.00 Q 858.00,22.00 858.00,26.00 L 858.00,84.00 Q 858.00,88.00 854.00,88.00 L 796.00,88.00 Q 792.00,88.00 792.00,84.00 L 792.00,26.00 Q 792.00,22.00 796.00,22.00 Z" />
    <path class="key-bg part-1" d="M 866.00,22.00 L 924.00,22.00 Q 928.00,22.00 928.00,26.00 L 928.00,84.00 Q 928.00,88.00 924.00,88.00 L 866.00,88.00 Q 862.00,88.00 862.00,84.00 L 862.00,26.00 Q 862.00,22.00 866.00,22.00 Z" />
    <path class="key-bg part-1" d="M 936.00,30.40 L 994.00,30.40 Q 998.00,30.40 998.00,34.40 L 998.00,92.40 Q 998.00,96.40 994.00,96.40 L 936.00,96.40 Q 932.00,96.40 932.00,92.40 L 932.00,34.40 Q 932.00,30.40 936.00,30.40 Z" />
    <path class="key-bg part-1" d="M 1006.00,38.80 L 1064.00,38.80 Q 1068.00,38.80 1068.00,42.80 L 1068.00,100.80 Q 1068.00,104.80 1064.00,104.80 L 1006.00,104.80 Q 1002.00,104.80 1002.00,100.80 L 1002.00,42.80 Q 1002.00,38.80 1006.00,38.80 Z" />
    <path class="key-bg part-0" d="M 26.00,108.80 L 84.00,108.80 Q 88.00,108.80 88.00,112.80 L 88.00,170.80 Q 88.00,174.80 84.00,174.80 L 26.00,174.80 Q 22.00,174.80 22.00,170.80 L 22.00,112.80 Q 22.00,108.80 26.00,108.80 Z" />
    <path class="key-bg part-0" d="M 96.00,100.40 L 154.00,100.40 Q 158.00,100.40 158.00,104.40 L 158.00,162.40 Q 158.00,166.40 154.00,166.40 L 96.00,166.40 Q 92.00,166.40 92.00,162.40 L 92.00,104.40 Q 92.00,100.40 96.00,100.40 Z" />
    <path class="key-bg part-0" d="M 166.00,92.00 L 224.00,92.00 Q 228.00,92.00 228.00,96.00 L 228.00,154.00 Q 228.00,158.00 224.00,158.00 L 166.00,158.00 Q 162.00,158.00 162.00,154.00 L 162.00,96.00 Q 162.00,92.00 166.00,92.00 Z" />
    <path class="key-bg part-0" d="M 236.00,92.00 L 294.00,92.00 Q 298.00,92.00 298.00,96.00 L 298.00,154.00 Q 298.00,158.00 294.00,158.00 L 236.00,158.00 Q 232.00,158.00 232.00,154.00 L 232.00,96.00 Q 232.00,92.00 236.00,92.00 Z" />
    <path class="key-bg part-0" d="M 306.00,100.40 L 364.00,100.40 Q 368.00,100.40 368.00,104.40 L 368.00,162.40 Q 368.00,166.40 364.00,166.40 L 306.00,166.40 Q 302.00,166.40 302.00,162.40 L 302.00,104.40 Q 302.00,100.40 306.00,100.40 Z" />
    <path class="key-bg part-0" d="M 376.00,108.80 L 434.00,108.80 Q 438.00,108.80 438.00,112.80 L 438.00,170.80 Q 438.00,174.80 434.00,174.80 L 376.00,174.80 Q 372.00,174.80 372.00,170.80 L 372.00,112.80 Q 372.00,108.80 376.00,108.80 Z" />
    <path class="key-bg part-1" d="M 656.00,108.80 L 714.00,108.80 Q 718.00,108.80 718.00,112.80 L 718.00,170.80 Q 718.00,174.80 714.00,174.80 L 656.00,174.80 Q 652.00,174.80 652.00,170.80 L 652.00,112.80 Q 652.00,108.80 656.00,108.80 Z" />
    <path class="key-bg part-1" d="M 726.00,100.40 L 784.00,100.40 Q 788.00,100.40 788.00,104.40 L 788.00,162.40 Q 788.00,166.40 784.00,166.40 L 726.00,166.40 Q 722.00,166.40 722.00,162.40 L 722.00,104.40 Q 722.00,100.40 726.00,100.40 Z" />
    <path class="key-bg part-1" d="M 796.00,92.00 L 854.00,92.00 Q 858.00,92.00 858.00,96.00 L 858.00,154.00 Q 858.00,158.00 854.00,158.00 L 796.00,158.00 Q 792.00,158.00 792.00,154.00 L 792.00,96.00 Q 792.00,92.00 796.00,92.00 Z" />
    <path class="key-bg part-1" d="M 866.00,92.00 L 924.00,92.00 Q 928.00,92.00 928.00,96.00 L 928.00,154.00 Q 928.00,158.00 924.00,158.00 L 866.00,158.00 Q 862.00,158.00 862.00,154.00 L 862.00,96.00 Q 862.00,92.00 866.00,92.00 Z" />
    <path class="key-bg part-1" d="M 936.00,100.40 L 994.00,100.40 Q 998.00,100.40 998.00,104.40 L 998.00,162.40 Q 998.00,166.40 994.00,166.40 L 936.00,166.40 Q 932.00,166.40 932.00,162.40 L 932.00,104.40 Q 932.00,100.40 936.00,100.40 Z" />
    <path class="key-bg part-1" d="M 1006.00,108.80 L 1064.00,108.80 Q 1068.00,108.80 1068.00,112.80 L 1068.00,170.80 Q 1068.00,174.80 1064.00,174.80 L 1006.00,174.80 Q 1002.00,174.80 1002.00,170.80 L 1002.00,112.80 Q 1002.00,108.80 1006.00,108.80 Z" />
    <path class="key-bg part-0" d="M 26.00,178.10 L 84.00,178.10 Q 88.00,178.10 88.00,182.10 L 88.00,240.10 Q 88.00,244.10 84.00,244.10 L 26.00,244.10 Q 22.00,244.10 22.00,240.10 L 22.00,182.10 Q 22.00,178.10 26.00,178.10 Z" />
    <path class="key-bg part-0" d="M 96.00,170.40 L 154.00,170.40 Q 158.00,170.40 158.00,174.40 L 158.00,232.40 Q 158.00,236.40 154.00,236.40 L 96.00,236.40 Q 92.00,236.40 92.00,232.40 L 92.00,174.40 Q 92.00,170.40 96.00,170.40 Z" />
    <path class="key-bg part-0" d="M 166.00,162.00 L 224.00,162.00 Q 228.00,162.00 228.00,166.00 L 228.00,224.00 Q 228.00,228.00 224.00,228.00 L 166.00,228.00 Q 162.00,228.00 162.00,224.00 L 162.00,166.00 Q 162.00,162.00 166.00,162.00 Z" />
    <path class="key-bg part-0" d="M 236.00,162.00 L 294.00,162.00 Q 298.00,162.00 298.00,166.00 L 298.00,224.00 Q 298.00,228.00 294.00,228.00 L 236.00,228.00 Q 232.00,228.00 232.00,224.00 L 232.00,166.00 Q 232.00,162.00 236.00,162.00 Z" />
    <path class="key-bg part-0" d="M 306.00,170.40 L 364.00,170.40 Q 368.00,170.40 368.00,174.40 L 368.00,232.40 Q 368.00,236.40 364.00,236.40 L 306.00,236.40 Q 302.00,236.40 302.00,232.40 L 302.00,174.40 Q 302.00,170.40 306.00,170.40 Z" />
    <path class="key-bg part-0" d="M 376.00,178.80 L 434.00,178.80 Q 438.00,178.80 438.00,182.80 L 438.00,240.80 Q 438.00,244.80 434.00,244.80 L 376.00,244.80 Q 372.00,244.80 372.00,240.80 L 372.00,182.80 Q 372.00,178.80 376.00,178.80 Z" />
    <path class="key-bg part-0" d="M 462.80,162.00 L 520.80,162.00 Q 524.80,162.00 524.80,166.00 L 524.80,224.00 Q 524.80,228.00 520.80,228.00 L 462.80,228.00 Q 458.80,228.00 458.80,224.00 L 458.80,166.00 Q 458.80,162.00 462.80,162.00 Z" />
    <path class="key-bg part-1" d="M 569.20,162.00 L 627.20,162.00 Q 631.20,162.00 631.20,166.00 L 631.20,224.00 Q 631.20,228.00 627.20,228.00 L 569.20,228.00 Q 565.20,228.00 565.20,224.00 L 565.20,166.00 Q 565.20,162.00 569.20,162.00 Z" />
    <path class="key-bg part-1" d="M 656.00,178.80 L 714.00,178.80 Q 718.00,178.80 718.00,182.80 L 718.00,240.80 Q 718.00,244.80 714.00,244.80 L 656.00,244.80 Q 652.00,244.80 652.00,240.80 L 652.00,182.80 Q 652.00,178.80 656.00,178.80 Z" />
    <path class="key-bg part-1" d="M 726.00,170.40 L 784.00,170.40 Q 788.00,170.40 788.00,174.40 L 788.00,232.40 Q 788.00,236.40 784.00,236.40 L 726.00,236.40 Q 722.00,236.40 722.00,232.40 L 722.00,174.40 Q 722.00,170.40 726.00,170.40 Z" />
    <path class="key-bg part-1" d="M 796.00,162.00 L 854.00,162.00 Q 858.00,162.00 858.00,166.00 L 858.00,224.00 Q 858.00,228.00 854.00,228.00 L 796.00,228.00 Q 792.00,228.00 792.00,224.00 L 792.00,166.00 Q 792.00,162.00 796.00,162.00 Z" />
    <path class="key-bg part-1" d="M 866.00,162.00 L 924.00,162.00 Q 928.00,162.00 928.00,166.00 L 928.00,224.00 Q 928.00,228.00 924.00,228.00 L 866.00,228.00 Q 862.00,228.00 862.00,224.00 L 862.00,166.00 Q 862.00,162.00 866.00,162.00 Z" />
    <path class="key-bg part-1" d="M 936.00,170.40 L 994.00,170.40 Q 998.00,170.40 998.00,174.40 L 998.00,232.40 Q 998.00,236.40 994.00,236.40 L 936.00,236.40 Q 932.00,236.40 932.00,232.40 L 932.00,174.40 Q 932.00,170.40 936.00,170.40 Z" />
    <path class="key-bg part-1" d="M 1006.00,178.80 L 1064.00,178.80 Q 1068.00,178.80 1068.00,182.80 L 1068.00,240.80 Q 1068.00,244.80 1064.00,244.80 L 1006.00,244.80 Q 1002.00,244.80 1002.00,240.80 L 1002.00,182.80 Q 1002.00,178.80 1006.00,178.80 Z" />
    <path class="key-bg part-0" d="M 166.00,232.00 L 224.00,232.00 Q 228.00,232.00 228.00,236.00 L 228.00,294.00 Q 228.00,298.00 224.00,298.00 L 166.00,298.00 Q 162.00,298.00 162.00,294.00 L 162.00,236.00 Q 162.00,232.00 166.00,232.00 Z" />
    <path class="key-bg part-0" d="M 236.00,232.00 L 294.00,232.00 Q 298.00,232.00 298.00,236.00 L 298.00,294.00 Q 298.00,298.00 294.00,298.00 L 236.00,298.00 Q 232.00,298.00 232.00,294.00 L 232.00,236.00 Q 232.00,232.00 236.00,232.00 Z" />
    <path class="key-bg part-0" d="M 306.00,240.40 L 364.00,240.40 Q 368.00,240.40 368.00,244.40 L 368.00,302.40 Q 368.00,306.40 364.00,306.40 L 306.00,306.40 Q 302.00,306.40 302.00,302.40 L 302.00,244.40 Q 302.00,240.40 306.00,240.40 Z" />
    <path class="key-bg part-0" d="M 376.00,248.80 L 434.00,248.80 Q 438.00,248.80 438.00,252.80 L 438.00,310.80 Q 438.00,314.80 434.00,314.80 L 376.00,314.80 Q 372.00,314.80 372.00,310.80 L 372.00,252.80 Q 372.00,248.80 376.00,248.80 Z" />
    <path class="key-bg part-0" d="M 464.94,245.42 L 521.67,257.48 Q 525.59,258.31 524.76,262.22 L 512.70,318.95 Q 511.87,322.87 507.95,322.03 L 451.22,309.98 Q 447.31,309.14 448.14,305.23 L 460.20,248.50 Q 461.03,244.59 464.94,245.42 Z" />
    <path class="key-bg part-1" d="M 568.33,257.48 L 625.06,245.42 Q 628.97,244.59 629.80,248.50 L 641.86,305.23 Q 642.69,309.14 638.78,309.98 L 582.05,322.03 Q 578.13,322.87 577.30,318.95 L 565.24,262.22 Q 564.41,258.31 568.33,257.48 Z" />
    <path class="key-bg part-1" d="M 656.00,248.80 L 714.00,248.80 Q 718.00,248.80 718.00,252.80 L 718.00,310.80 Q 718.00,314.80 714.00,314.80 L 656.00,314.80 Q 652.00,314.80 652.00,310.80 L 652.00,252.80 Q 652.00,248.80 656.00,248.80 Z" />
    <path class="key-bg part-1" d="M 726.00,240.40 L 784.00,240.40 Q 788.00,240.40 788.00,244.40 L 788.00,302.40 Q 788.00,306.40 784.00,306.40 L 726.00,306.40 Q 722.00,306.40 722.00,302.40 L 722.00,244.40 Q 722.00,240.40 726.00,240.40 Z" />
    <path class="key-bg part-1" d="M 796.00,232.00 L 854.00,232.00 Q 858.00,232.00 858.00,236.00 L 858.00,294.00 Q 858.00,298.00 854.00,298.00 L 796.00,298.00 Q 792.00,298.00 792.00,294.00 L 792.00,236.00 Q 792.00,232.00 796.00,232.00 Z" />
    <path class="key-bg part-1" d="M 866.00,232.00 L 924.00,232.00 Q 928.00,232.00 928.00,236.00 L 928.00,294.00 Q 928.00,298.00 924.00,298.00 L 866.00,298.00 Q 862.00,298.00 862.00,294.00 L 862.00,236.00 Q 862.00,232.00 866.00,232.00 Z" />
  </g>
  <g>
    <text class="key-index" x="55.00" y="60.16" font-size="26">0</text>
    <text class="key-part part-0" x="55.00" y="87.44" font-size="18">left</text>
    <text class="key-index" x="125.00" y="51.76" font-size="26">1</text>
    <text class="key-part part-0" x="125.00" y="79.04" font-size="18">left</text>
    <text class="key-index" x="195.00" y="43.36" font-size="26">2</text>
    <text class="key-part part-0" x="195.00" y="70.64" font-size="18">left</text>
    <text class="key-index" x="265.00" y="43.36" font-size="26">3</text>
    <text class="key-part part-0" x="265.00" y="70.64" font-size="18">left</text>
    <text class="key-index" x="335.00" y="51.76" font-size="26">4</text>
    <text class="key-part part-0" x="335.00" y="79.04" font-size="18">left</text>
    <text class="key-index" x="405.00" y="60.16" font-size="26">5</text>
    <text class="key-part part-0" x="405.00" y="87.44" font-size="18">left</text>
    <text class="key-index" x="685.00" y="60.16" font-size="26">6</text>
    <text class="key-part part-1" x="685.00" y="87.44" font-size="18">right</text>
    <text class="key-index" x="755.00" y="51.76" font-size="26">7</text>
    <text class="key-part part-1" x="755.00" y="79.04" font-size="18">right</text>
    <text class="key-index" x="825.00" y="43.36" font-size="26">8</text>
    <text class="key-part part-1" x="825.00" y="70.64" font-size="18">right</text>
    <text class="key-index" x="895.00" y="43.36" font-size="26">9</text>
    <text class="key-part part-1" x="895.00" y="70.64" font-size="18">right</text>
    <text class="key-index" x="965.00" y="51.76" font-size="26">10</text>
    <text class="key-part part-1" x="965.00" y="79.04" font-size="18">right</text>
    <text class="key-index" x="1035.00" y="60.16" font-size="26">11</text>
    <text class="key-part part-1" x="1035.00" y="87.44" font-size="18">right</text>
    <text class="key-index" x="55.00" y="130.16" font-size="26">12</text>
    <text class="key-part part-0" x="55.00" y="157.44" font-size="18">left</text>
    <text class="key-index" x="125.00" y="121.76" font-size="26">13</text>
    <text class="key-part part-0" x="125.00" y="149.04" font-size="18">left</text>
    <text class="key-index" x="195.00" y="113.36" font-size="26">14</text>
    <text class="key-part part-0" x="195.00" y="140.64" font-size="18">left</text>
    <text class="key-index" x="265.00" y="113.36" font-size="26">15</text>
    <text class="key-part part-0" x="265.00" y="140.64" font-size="18">left</text>
    <text class="key-index" x="335.00" y="121.76" font-size="26">16</text>
    <text class="key-part part-0" x="335.00" y="149.04" font-size="18">left</text>
    <text class="key-index" x="405.00" y="130.16" font-size="26">17</text>
    <text class="key-part part-0" x="405.00" y="157.44" font-size="18">left</text>
    <text class="key-index" x="685.00" y="130.16" font-size="26">18</text>
    <text class="key-part part-1" x="685.00" y="157.44" font-size="18">right</text>
    <text class="key-index" x="755.00" y="121.76" font-size="26">19</text>
    <text class="key-part part-1" x="755.00" y="149.04" font-size="18">right</text>
    <text class="key-index" x="825.00" y="113.36" font-size="26">20</text>
    <text class="key-part part-1" x="825.00" y="140.64" font-size="18">right</text>
    <text class="key-index" x="895.00" y="113.36" font-size="26">21</text>
    <text class="key-part part-1" x="895.00" y="140.64" font-size="18">right</text>
    <text class="key-index" x="965.00" y="121.76" font-size="26">22</text>
    <text class="key-part part-1" x="965.00" y="149.04" font-size="18">right</text>
    <text class="key-index" x="1035.00" y="130.16" font-size="26">23</text>
    <text class="key-part part-1" x="1035.00" y="157.44" font-size="18">right</text>
    <text class="key-index" x="55.00" y="199.46" font-size="26">24</text>
    <text class="key-part part-0" x="55.00" y="226.74" font-size="18">left</text>
    <text class="key-index" x="125.00" y="191.76" font-size="26">25</text>
    <text class="key-part part-0" x="125.00" y="219.04" font-size="18">left</text>
    <text class="key-index" x="195.00" y="183.36" font-size="26">26</text>
    <text class="key-part part-0" x="195.00" y="210.64" font-size="18">left</text>
    <text class="key-index" x="265.00" y="183.36" font-size="26">27</text>
    <text class="key-part part-0" x="265.00" y="210.64" font-size="18">left</text>
    <text class="key-index" x="335.00" y="191.76" font-size="26">28</text>
    <text class="key-part part-0" x="335.00" y="219.04" font-size="18">left</text>
    <text class="key-index" x="405.00" y="200.16" font-size="26">29</text>
    <text class="key-part part-0" x="405.00" y="227.44" font-size="18">left</text>
    <text class="key-index" x="491.80" y="183.36" font-size="26">30</text>
    <text class="key-part part-0" x="491.80" y="210.64" font-size="18">left</text>
    <text class="key-index" x="598.20" y="183.36" font-size="26">31</text>
    <text class="key-part part-1" x="598.20" y="210.64" font-size="18">right</text>
    <text class="key-index" x="685.00" y="200.16" font-size="26">32</text>
    <text class="key-part part-1" x="685.00" y="227.44" font-size="18">right</text>
    <text class="key-index" x="755.00" y="191.76" font-size="26">33</text>
    <text class="key-part part-1" x="755.00" y="219.04" font-size="18">right</text>
    <text class="key-index" x="825.00" y="183.36" font-size="26">34</text>
    <text class="key-part part-1" x="825.00" y="210.64" font-size="18">right</text>
    <text class="key-index" x="895.00" y="183.36" font-size="26">35</text>
    <text class="key-part part-1" x="895.00" y="210.64" font-size="18">right</text>
    <text class="key-index" x="965.00" y="191.76" font-size="26">36</text>
    <text class="key-part part-1" x="965.00" y="219.04" font-size="18">right</text>
    <text class="key-index" x="1035.00" y="200.16" font-size="26">37</text>
    <text class="key-part part-1" x="1035.00" y="227.44" font-size="18">right</text>
    <text class="key-index" x="195.00" y="253.36" font-size="26">38</text>
    <text class="key-part part-0" x="195.00" y="280.64" font-size="18">left</text>
    <text class="key-index" x="265.00" y="253.36" font-size="26">39</text>
    <text class="key-part part-0" x="265.00" y="280.64" font-size="18">left</text>
    <text class="key-index" x="335.00" y="261.76" font-size="26">40</text>
    <text class="key-part part-0" x="335.00" y="289.04" font-size="18">left</text>
    <text class="key-index" x="405.00" y="270.16" font-size="26">41</text>
    <text class="key-part part-0" x="405.00" y="297.44" font-size="18">left</text>
    <text class="key-index" x="486.45" y="272.09" font-size="26" transform="rotate(12 486.45 283.73)">42</text>
    <text class="key-part part-0" x="486.45" y="299.37" font-size="18" transform="rotate(12 486.45 283.73)">left</text>
    <text class="key-index" x="603.55" y="272.09" font-size="26" transform="rotate(-12 603.55 283.73)">43</text>
    <text class="key-part part-1" x="603.55" y="299.37" font-size="18" transform="rotate(-12 603.55 283.73)">right</text>
    <text class="key-index" x="685.00" y="270.16" font-size="26">44</text>
    <text class="key-part part-1" x="685.00" y="297.44" font-size="18">right</text>
    <text class="key-index" x="755.00" y="261.76" font-size="26">45</text>
    <text class="key-part part-1" x="755.00" y="289.04" font-size="18">right</text>
    <text class="key-index" x="825.00" y="253.36" font-size="26">46</text>
    <text class="key-part part-1" x="825.00" y="280.64" font-size="18">right</text>
    <text class="key-index" x="895.00" y="253.36" font-size="26">47</text>
    <text class="key-part part-1" x="895.00" y="280.64" font-size="18">right</text>
  </g>
</svg>
